<svg width="20" height="26" viewBox="0 0 20 26" fill="none" xmlns="http://www.w3.org/2000/svg">
<path d="M15.4375 0H4.0625C2.98506 0 1.95175 0.428012 1.18988 1.18988C0.428012 1.95175 0 2.98506 0 4.0625V21.9375C0 23.0149 0.428012 24.0483 1.18988 24.8101C1.95175 25.572 2.98506 26 4.0625 26H15.4375C16.5149 26 17.5483 25.572 18.3101 24.8101C19.072 24.0483 19.5 23.0149 19.5 21.9375V4.0625C19.5 2.98506 19.072 1.95175 18.3101 1.18988C17.5483 0.428012 16.5149 0 15.4375 0ZM5.6875 3.25H13.8125C14.459 3.25 15.079 3.50681 15.5361 3.96393C15.9932 4.42105 16.25 5.04103 16.25 5.6875V7.3125C16.25 7.95897 15.9932 8.57895 15.5361 9.03607C15.079 9.49319 14.459 9.75 13.8125 9.75H5.6875C5.04103 9.75 4.42105 9.49319 3.96393 9.03607C3.50681 8.57895 3.25 7.95897 3.25 7.3125V5.6875C3.25 5.04103 3.50681 4.42105 3.96393 3.96393C4.42105 3.50681 5.04103 3.25 5.6875 3.25ZM6.5 14.625C6.5 15.056 6.32879 15.4693 6.02405 15.774C5.7193 16.0788 5.30598 16.25 4.875 16.25C4.44402 16.25 4.0307 16.0788 3.72595 15.774C3.42121 15.4693 3.25 15.056 3.25 14.625C3.25 14.194 3.42121 13.7807 3.72595 13.476C4.0307 13.1712 4.44402 13 4.875 13C5.30598 13 5.7193 13.1712 6.02405 13.476C6.32879 13.7807 6.5 14.194 6.5 14.625ZM6.5 19.5C6.5 19.931 6.32879 20.3443 6.02405 20.649C5.7193 20.9538 5.30598 21.125 4.875 21.125C4.44402 21.125 4.0307 20.9538 3.72595 20.649C3.42121 20.3443 3.25 19.931 3.25 19.5C3.25 19.069 3.42121 18.6557 3.72595 18.351C4.0307 18.0462 4.44402 17.875 4.875 17.875C5.30598 17.875 5.7193 18.0462 6.02405 18.351C6.32879 18.6557 6.5 19.069 6.5 19.5ZM14.625 16.25C14.194 16.25 13.7807 16.0788 13.476 15.774C13.1712 15.4693 13 15.056 13 14.625C13 14.194 13.1712 13.7807 13.476 13.476C13.7807 13.1712 14.194 13 14.625 13C15.056 13 15.4693 13.1712 15.774 13.476C16.0788 13.7807 16.25 14.194 16.25 14.625C16.25 15.056 16.0788 15.4693 15.774 15.774C15.4693 16.0788 15.056 16.25 14.625 16.25ZM16.25 19.5C16.25 19.931 16.0788 20.3443 15.774 20.649C15.4693 20.9538 15.056 21.125 14.625 21.125C14.194 21.125 13.7807 20.9538 13.476 20.649C13.1712 20.3443 13 19.931 13 19.5C13 19.069 13.1712 18.6557 13.476 18.351C13.7807 18.0462 14.194 17.875 14.625 17.875C15.056 17.875 15.4693 18.0462 15.774 18.351C16.0788 18.6557 16.25 19.069 16.25 19.5ZM9.75 16.25C9.31902 16.25 8.9057 16.0788 8.60095 15.774C8.29621 15.4693 8.125 15.056 8.125 14.625C8.125 14.194 8.29621 13.7807 8.60095 13.476C8.9057 13.1712 9.31902 13 9.75 13C10.181 13 10.5943 13.1712 10.899 13.476C11.2038 13.7807 11.375 14.194 11.375 14.625C11.375 15.056 11.2038 15.4693 10.899 15.774C10.5943 16.0788 10.181 16.25 9.75 16.25ZM11.375 19.5C11.375 19.931 11.2038 20.3443 10.899 20.649C10.5943 20.9538 10.181 21.125 9.75 21.125C9.31902 21.125 8.9057 20.9538 8.60095 20.649C8.29621 20.3443 8.125 19.931 8.125 19.5C8.125 19.069 8.29621 18.6557 8.60095 18.351C8.9057 18.0462 9.31902 17.875 9.75 17.875C10.181 17.875 10.5943 18.0462 10.899 18.351C11.2038 18.6557 11.375 19.069 11.375 19.5Z" fill="url(#paint0_linear)"/>
<defs>
<linearGradient id="paint0_linear" x1="9.75" y1="0" x2="9.75" y2="26" gradientUnits="userSpaceOnUse">
<stop stop-color="#257AC9"/>
<stop offset="1" stop-color="#113E6A"/>
</linearGradient>
</defs>
</svg>
