<svg width="34" height="29" viewBox="0 0 34 29" fill="none" xmlns="http://www.w3.org/2000/svg">
<g filter="url(#filter0_d)">
<path d="M17 4C9.26801 4 3 10.268 3 18C3 19.7172 3.30931 21.3624 3.875 22.8826H7.70311C6.93552 21.4239 6.5 19.7628 6.5 18C6.5 12.201 11.201 7.5 17 7.5C22.799 7.5 27.5 12.201 27.5 18C27.5 19.7628 27.0645 21.4239 26.2969 22.8826H30.125C30.6907 21.3624 31 19.7172 31 18C31 10.268 24.732 4 17 4ZM17 9.4978C16.0335 9.4978 15.25 10.2813 15.25 11.2478C15.25 12.2143 16.0335 12.9978 17 12.9978C17.9665 12.9978 18.75 12.2143 18.75 11.2478C18.75 10.2813 17.9665 9.4978 17 9.4978ZM11.7517 11.2119C10.7852 11.2119 10.0017 11.9954 10.0017 12.9619C10.0017 13.9284 10.7852 14.7119 11.7517 14.7119C12.7182 14.7119 13.5017 13.9284 13.5017 12.9619C13.5017 11.9954 12.7182 11.2119 11.7517 11.2119ZM22.2483 11.2119C21.2818 11.2119 20.4983 11.9954 20.4983 12.9619C20.4983 13.9284 21.2818 14.7119 22.2483 14.7119C23.2148 14.7119 23.9983 13.9284 23.9983 12.9619C23.9983 11.9954 23.2148 11.2119 22.2483 11.2119ZM17 14.647L15.6277 21.5103V22.8826H18.3723V21.5103L17 14.647Z" fill="url(#paint0_linear)"/>
</g>
<defs>
<filter id="filter0_d" x="0" y="0" width="34" height="34" filterUnits="userSpaceOnUse" color-interpolation-filters="sRGB">
<feFlood flood-opacity="0" result="BackgroundImageFix"/>
<feColorMatrix in="SourceAlpha" type="matrix" values="0 0 0 0 0 0 0 0 0 0 0 0 0 0 0 0 0 0 127 0" result="hardAlpha"/>
<feOffset dy="3"/>
<feGaussianBlur stdDeviation="1.5"/>
<feColorMatrix type="matrix" values="0 0 0 0 0 0 0 0 0 0 0 0 0 0 0 0 0 0 0.21 0"/>
<feBlend mode="normal" in2="BackgroundImageFix" result="effect1_dropShadow"/>
<feBlend mode="normal" in="SourceGraphic" in2="effect1_dropShadow" result="shape"/>
</filter>
<linearGradient id="paint0_linear" x1="17" y1="4" x2="17" y2="22.8826" gradientUnits="userSpaceOnUse">
<stop stop-color="#257AC9"/>
<stop offset="1" stop-color="#113E6A"/>
</linearGradient>
</defs>
</svg>
