<svg width="40" height="34" viewBox="0 0 40 34" fill="none" xmlns="http://www.w3.org/2000/svg">
<path d="M21.15 8.66666C20.5974 8.66666 20.0675 8.88615 19.6768 9.27685C19.2861 9.66755 19.0667 10.1975 19.0667 10.75C19.0667 11.3025 19.2861 11.8324 19.6768 12.2231C20.0675 12.6138 20.5974 12.8333 21.15 12.8333H29.4833C30.0359 12.8333 30.5658 12.6138 30.9565 12.2231C31.3472 11.8324 31.5667 11.3025 31.5667 10.75C31.5667 10.1975 31.3472 9.66755 30.9565 9.27685C30.5658 8.88615 30.0359 8.66666 29.4833 8.66666H21.15Z" fill="url(#paint0_linear)"/>
<path d="M21.15 27.4167C20.5974 27.4167 20.0675 27.6361 19.6768 28.0268C19.2861 28.4176 19.0667 28.9475 19.0667 29.5C19.0667 30.0525 19.2861 30.5824 19.6768 30.9731C20.0675 31.3638 20.5974 31.5833 21.15 31.5833H29.4833C30.0359 31.5833 30.5658 31.3638 30.9565 30.9731C31.3472 30.5824 31.5667 30.0525 31.5667 29.5C31.5667 28.9475 31.3472 28.4176 30.9565 28.0268C30.5658 27.6361 30.0359 27.4167 29.4833 27.4167H21.15Z" fill="url(#paint1_linear)"/>
<path d="M21.15 2.41666C20.5974 2.41666 20.0675 2.63615 19.6768 3.02685C19.2861 3.41755 19.0667 3.94746 19.0667 4.49999C19.0667 5.05252 19.2861 5.58243 19.6768 5.97313C20.0675 6.36383 20.5974 6.58332 21.15 6.58332H37.8167C38.3692 6.58332 38.8991 6.36383 39.2898 5.97313C39.6805 5.58243 39.9 5.05252 39.9 4.49999C39.9 3.94746 39.6805 3.41755 39.2898 3.02685C38.8991 2.63615 38.3692 2.41666 37.8167 2.41666H21.15Z" fill="url(#paint2_linear)"/>
<path d="M21.15 21.1667C20.5974 21.1667 20.0675 21.3862 19.6768 21.7769C19.2861 22.1676 19.0667 22.6975 19.0667 23.25C19.0667 23.8025 19.2861 24.3324 19.6768 24.7231C20.0675 25.1138 20.5974 25.3333 21.15 25.3333H37.8167C38.3692 25.3333 38.8991 25.1138 39.2898 24.7231C39.6805 24.3324 39.9 23.8025 39.9 23.25C39.9 22.6975 39.6805 22.1676 39.2898 21.7769C38.8991 21.3862 38.3692 21.1667 37.8167 21.1667H21.15Z" fill="url(#paint3_linear)"/>
<path d="M2.18331 0.337509C1.63077 0.337509 1.10087 0.557003 0.71017 0.947704C0.319469 1.3384 0.0999756 1.86831 0.0999756 2.42084V12.8375C0.0999756 13.39 0.319469 13.9199 0.71017 14.3106C1.10087 14.7013 1.63077 14.9208 2.18331 14.9208H12.6C13.1525 14.9208 13.6824 14.7013 14.0731 14.3106C14.4638 13.9199 14.6833 13.39 14.6833 12.8375V2.42084C14.6833 1.86831 14.4638 1.3384 14.0731 0.947704C13.6824 0.557003 13.1525 0.337509 12.6 0.337509H2.18331Z" fill="url(#paint4_linear)"/>
<path d="M2.18331 19.0791C1.63077 19.0791 1.10087 19.2986 0.71017 19.6893C0.319469 20.08 0.0999756 20.6099 0.0999756 21.1625V31.5791C0.0999756 32.1317 0.319469 32.6616 0.71017 33.0523C1.10087 33.443 1.63077 33.6625 2.18331 33.6625H12.6C13.1525 33.6625 13.6824 33.443 14.0731 33.0523C14.4638 32.6616 14.6833 32.1317 14.6833 31.5791V21.1625C14.6833 20.6099 14.4638 20.08 14.0731 19.6893C13.6824 19.2986 13.1525 19.0791 12.6 19.0791H2.18331Z" fill="url(#paint5_linear)"/>
<defs>
<linearGradient id="paint0_linear" x1="25.3167" y1="8.66666" x2="25.3167" y2="12.8333" gradientUnits="userSpaceOnUse">
<stop stop-color="#257AC9"/>
<stop offset="1" stop-color="#113E6A"/>
</linearGradient>
<linearGradient id="paint1_linear" x1="25.3167" y1="27.4167" x2="25.3167" y2="31.5833" gradientUnits="userSpaceOnUse">
<stop stop-color="#257AC9"/>
<stop offset="1" stop-color="#113E6A"/>
</linearGradient>
<linearGradient id="paint2_linear" x1="29.4833" y1="2.41666" x2="29.4833" y2="6.58332" gradientUnits="userSpaceOnUse">
<stop stop-color="#257AC9"/>
<stop offset="1" stop-color="#113E6A"/>
</linearGradient>
<linearGradient id="paint3_linear" x1="29.4833" y1="21.1667" x2="29.4833" y2="25.3333" gradientUnits="userSpaceOnUse">
<stop stop-color="#257AC9"/>
<stop offset="1" stop-color="#113E6A"/>
</linearGradient>
<linearGradient id="paint4_linear" x1="7.39164" y1="0.337509" x2="7.39164" y2="14.9208" gradientUnits="userSpaceOnUse">
<stop stop-color="#257AC9"/>
<stop offset="1" stop-color="#113E6A"/>
</linearGradient>
<linearGradient id="paint5_linear" x1="7.39164" y1="19.0791" x2="7.39164" y2="33.6625" gradientUnits="userSpaceOnUse">
<stop stop-color="#257AC9"/>
<stop offset="1" stop-color="#113E6A"/>
</linearGradient>
</defs>
</svg>
