<svg width="50" height="50" viewBox="0 0 50 50" fill="none" xmlns="http://www.w3.org/2000/svg">
<path d="M44.6777 40.332L35.6445 31.2988C36.849 29.3132 37.4512 27.181 37.4512 24.9023C37.4512 22.0052 36.5641 19.4336 34.79 17.1875C33.0159 14.9414 30.7617 13.4603 28.0273 12.7441V0C32.1289 0.520833 35.848 1.93685 39.1846 4.24805C42.5212 6.55924 45.1579 9.52962 47.0947 13.1592C49.0316 16.7887 50 20.7031 50 24.9023C50 30.6315 48.2259 35.7747 44.6777 40.332ZM12.793 21.7285H0C0.716146 16.0645 3.10059 11.2061 7.15332 7.15332C11.2061 3.10059 16.0645 0.716146 21.7285 0V12.7441C19.5475 13.3301 17.6514 14.4287 16.04 16.04C14.4287 17.6514 13.3464 19.5475 12.793 21.7285ZM12.7441 28.0273C13.4603 30.7617 14.9414 33.0159 17.1875 34.79C19.4336 36.5641 22.0052 37.4512 24.9023 37.4512C27.181 37.4512 29.3132 36.849 31.2988 35.6445L40.332 44.6777C35.7747 48.2259 30.6315 50 24.9023 50C20.7031 50 16.7887 49.0316 13.1592 47.0947C9.52962 45.1579 6.55924 42.5212 4.24805 39.1846C1.93685 35.848 0.520833 32.1289 0 28.0273H12.7441Z" fill="url(#paint0_linear)"/>
<defs>
<linearGradient id="paint0_linear" x1="25" y1="0" x2="25" y2="50" gradientUnits="userSpaceOnUse">
<stop stop-color="#257AC9"/>
<stop offset="1" stop-color="#113E6A"/>
</linearGradient>
</defs>
</svg>
