<svg width="174" height="65" viewBox="0 0 174 65" fill="none" xmlns="http://www.w3.org/2000/svg">
<path d="M50.9375 53.9688C48.8281 56.3125 45.7422 58.2005 41.6797 59.6328C37.6172 61.0651 33.1641 61.7812 28.3203 61.7812C20.8724 61.7812 14.9219 59.5026 10.4688 54.9453C6.01562 50.388 3.63281 44.0469 3.32031 35.9219L3.28125 31C3.28125 25.401 4.27083 20.5182 6.25 16.3516C8.22917 12.1589 11.0547 8.94271 14.7266 6.70312C18.4245 4.4375 22.6953 3.30469 27.5391 3.30469C34.6224 3.30469 40.1172 4.93229 44.0234 8.1875C47.9557 11.4167 50.2474 16.2474 50.8984 22.6797H37.6953C37.2266 19.5026 36.2109 17.237 34.6484 15.8828C33.0859 14.5286 30.8724 13.8516 28.0078 13.8516C24.5703 13.8516 21.9141 15.3099 20.0391 18.2266C18.1641 21.1432 17.2135 25.3099 17.1875 30.7266V34.1641C17.1875 39.8411 18.151 44.112 20.0781 46.9766C22.0312 49.8151 25.0911 51.2344 29.2578 51.2344C32.8255 51.2344 35.4818 50.4401 37.2266 48.8516V40.0234H27.6953V30.6094H50.9375V53.9688ZM79.7266 28.8125L90.1953 4.125H105L86.6797 40.5703V61H72.7734V40.5703L54.4922 4.125H69.2188L79.7266 28.8125ZM127.148 4.125L139.844 43.6953L152.5 4.125H170.547V61H156.797V47.7188L158.125 20.5312L144.375 61H135.312L121.523 20.4922L122.852 47.7188V61H109.141V4.125H127.148Z" fill="#FCFCFC" fill-opacity="0.85"/>
<path d="M50.9375 53.9688L53.1674 55.9756L53.9375 55.12V53.9688H50.9375ZM3.32031 35.9219L0.320407 35.9457L0.32077 35.9914L0.322529 36.0372L3.32031 35.9219ZM3.28125 31H0.28125V31.0119L0.281344 31.0238L3.28125 31ZM6.25 16.3516L8.95984 17.6387L8.96293 17.6322L6.25 16.3516ZM14.7266 6.70312L16.2887 9.26432L16.2938 9.26119L14.7266 6.70312ZM44.0234 8.1875L42.1029 10.4922L42.1112 10.4991L42.1195 10.5059L44.0234 8.1875ZM50.8984 22.6797V25.6797H54.2174L53.8832 22.3776L50.8984 22.6797ZM37.6953 22.6797L34.7274 23.1176L35.1055 25.6797H37.6953V22.6797ZM20.0391 18.2266L22.5626 19.8488L20.0391 18.2266ZM17.1875 30.7266L14.1875 30.7121L14.1875 30.7194V30.7266H17.1875ZM20.0781 46.9766L17.589 48.6511L17.5977 48.6641L17.6067 48.6771L20.0781 46.9766ZM37.2266 48.8516L39.2462 51.0699L40.2266 50.1773V48.8516H37.2266ZM37.2266 40.0234H40.2266V37.0234H37.2266V40.0234ZM27.6953 40.0234H24.6953V43.0234H27.6953V40.0234ZM27.6953 30.6094V27.6094H24.6953V30.6094H27.6953ZM50.9375 30.6094H53.9375V27.6094H50.9375V30.6094ZM48.7076 51.9619C47.0342 53.8212 44.4368 55.4798 40.6822 56.8035L42.6772 62.4621C47.0476 60.9213 50.6221 58.8038 53.1674 55.9756L48.7076 51.9619ZM40.6822 56.8035C36.9774 58.1097 32.8662 58.7812 28.3203 58.7812V64.7812C33.462 64.7812 38.257 64.0205 42.6772 62.4621L40.6822 56.8035ZM28.3203 58.7812C21.5323 58.7812 16.4076 56.7305 12.6145 52.8487L8.32305 57.042C13.4362 62.2747 20.2125 64.7812 28.3203 64.7812V58.7812ZM12.6145 52.8487C8.81251 48.9578 6.61017 43.4004 6.3181 35.8066L0.322529 36.0372C0.655459 44.6934 3.21874 51.8183 8.32305 57.042L12.6145 52.8487ZM6.32022 35.8981L6.28116 30.9762L0.281344 31.0238L0.320407 35.9457L6.32022 35.8981ZM6.28125 31C6.28125 25.7528 7.20815 21.3265 8.95983 17.6387L3.54017 15.0644C1.33351 19.71 0.28125 25.0493 0.28125 31H6.28125ZM8.96293 17.6322C10.7123 13.9264 13.1566 11.1747 16.2887 9.26432L13.1644 4.14193C8.95276 6.71075 5.74607 10.3913 3.53707 15.0709L8.96293 17.6322ZM16.2938 9.26119C19.4664 7.31742 23.182 6.30469 27.5391 6.30469V0.304688C22.2086 0.304688 17.3826 1.55758 13.1593 4.14506L16.2938 9.26119ZM27.5391 6.30469C34.1938 6.30469 38.9139 7.83464 42.1029 10.4922L45.944 5.88284C41.3205 2.02994 35.051 0.304688 27.5391 0.304688V6.30469ZM42.1195 10.5059C45.285 13.1054 47.3198 17.1141 47.9137 22.9818L53.8832 22.3776C53.175 15.3807 50.6265 9.72797 45.9273 5.86905L42.1195 10.5059ZM50.8984 19.6797H37.6953V25.6797H50.8984V19.6797ZM40.6632 22.2418C40.1449 18.7292 38.9484 15.6396 36.6132 13.6157L32.6836 18.1499C33.4735 18.8344 34.3082 20.276 34.7274 23.1176L40.6632 22.2418ZM36.6132 13.6157C34.3269 11.6342 31.3166 10.8516 28.0078 10.8516V16.8516C30.4282 16.8516 31.845 17.4231 32.6836 18.1499L36.6132 13.6157ZM28.0078 10.8516C23.5388 10.8516 19.9367 12.838 17.5155 16.6043L22.5626 19.8488C23.8914 17.7818 25.6018 16.8516 28.0078 16.8516V10.8516ZM17.5155 16.6043C15.2042 20.1996 14.2149 25.0198 14.1875 30.7121L20.1875 30.741C20.2122 25.6 21.1239 22.0868 22.5626 19.8488L17.5155 16.6043ZM14.1875 30.7266V34.1641H20.1875V30.7266H14.1875ZM14.1875 34.1641C14.1875 40.09 15.1769 45.0656 17.589 48.6511L22.5673 45.302C21.1252 43.1583 20.1875 39.5923 20.1875 34.1641H14.1875ZM17.6067 48.6771C20.2409 52.5056 24.3391 54.2344 29.2578 54.2344V48.2344C25.8432 48.2344 23.8216 47.1246 22.5496 45.276L17.6067 48.6771ZM29.2578 54.2344C33.201 54.2344 36.725 53.3653 39.2462 51.0699L35.2069 46.6332C34.2386 47.5149 32.4501 48.2344 29.2578 48.2344V54.2344ZM40.2266 48.8516V40.0234H34.2266V48.8516H40.2266ZM37.2266 37.0234H27.6953V43.0234H37.2266V37.0234ZM30.6953 40.0234V30.6094H24.6953V40.0234H30.6953ZM27.6953 33.6094H50.9375V27.6094H27.6953V33.6094ZM47.9375 30.6094V53.9688H53.9375V30.6094H47.9375ZM79.7266 28.8125L76.9662 29.9874L79.7317 36.4848L82.4885 29.9837L79.7266 28.8125ZM90.1953 4.125V1.125H88.2089L87.4334 2.9538L90.1953 4.125ZM105 4.125L107.68 5.47238L109.866 1.125H105V4.125ZM86.6797 40.5703L83.9993 39.2229L83.6797 39.8587V40.5703H86.6797ZM86.6797 61V64H89.6797V61H86.6797ZM72.7734 61H69.7734V64H72.7734V61ZM72.7734 40.5703H75.7734V39.8601L75.455 39.2252L72.7734 40.5703ZM54.4922 4.125V1.125H49.6311L51.8106 5.47009L54.4922 4.125ZM69.2188 4.125L71.9791 2.9501L71.2023 1.125H69.2188V4.125ZM82.4885 29.9837L92.9572 5.2962L87.4334 2.9538L76.9646 27.6413L82.4885 29.9837ZM90.1953 7.125H105V1.125H90.1953V7.125ZM102.32 2.77762L83.9993 39.2229L89.3601 41.9177L107.68 5.47238L102.32 2.77762ZM83.6797 40.5703V61H89.6797V40.5703H83.6797ZM86.6797 58H72.7734V64H86.6797V58ZM75.7734 61V40.5703H69.7734V61H75.7734ZM75.455 39.2252L57.1737 2.77991L51.8106 5.47009L70.0919 41.9154L75.455 39.2252ZM54.4922 7.125H69.2188V1.125H54.4922V7.125ZM66.4584 5.2999L76.9662 29.9874L82.4869 27.6376L71.9791 2.9501L66.4584 5.2999ZM127.148 4.125L130.005 3.20852L129.337 1.125H127.148V4.125ZM139.844 43.6953L136.987 44.6118L139.848 53.5293L142.701 44.6092L139.844 43.6953ZM152.5 4.125V1.125H150.31L149.643 3.21108L152.5 4.125ZM170.547 4.125H173.547V1.125H170.547V4.125ZM170.547 61V64H173.547V61H170.547ZM156.797 61H153.797V64H156.797V61ZM156.797 47.7188L153.8 47.5724L153.797 47.6455V47.7188H156.797ZM158.125 20.5312L161.121 20.6776L155.284 19.5661L158.125 20.5312ZM144.375 61V64H146.524L147.216 61.9651L144.375 61ZM135.312 61L132.473 61.9667L133.165 64H135.312V61ZM121.523 20.4922L124.363 19.5254L118.527 20.6384L121.523 20.4922ZM122.852 47.7188H125.852V47.6456L125.848 47.5726L122.852 47.7188ZM122.852 61V64H125.852V61H122.852ZM109.141 61H106.141V64H109.141V61ZM109.141 4.125V1.125H106.141V4.125H109.141ZM124.292 5.04148L136.987 44.6118L142.7 42.7788L130.005 3.20852L124.292 5.04148ZM142.701 44.6092L155.357 5.03892L149.643 3.21108L136.986 42.7814L142.701 44.6092ZM152.5 7.125H170.547V1.125H152.5V7.125ZM167.547 4.125V61H173.547V4.125H167.547ZM170.547 58H156.797V64H170.547V58ZM159.797 61V47.7188H153.797V61H159.797ZM159.793 47.8651L161.121 20.6776L155.129 20.3849L153.8 47.5724L159.793 47.8651ZM155.284 19.5661L141.534 60.0349L147.216 61.9651L160.966 21.4964L155.284 19.5661ZM144.375 58H135.312V64H144.375V58ZM138.152 60.0333L124.363 19.5254L118.683 21.4589L132.473 61.9667L138.152 60.0333ZM118.527 20.6384L119.855 47.8649L125.848 47.5726L124.52 20.346L118.527 20.6384ZM119.852 47.7188V61H125.852V47.7188H119.852ZM122.852 58H109.141V64H122.852V58ZM112.141 61V4.125H106.141V61H112.141ZM109.141 7.125H127.148V1.125H109.141V7.125Z" fill="#222426" fill-opacity="0.8"/>
</svg>
