<svg width="18" height="21" viewBox="0 0 18 21" fill="none" xmlns="http://www.w3.org/2000/svg">
<path d="M0.329625 8.20438L8.20463 0.329385C8.41559 0.11848 8.70169 0 9 0C9.29831 0 9.58441 0.11848 9.79537 0.329385L17.6704 8.20438C17.8814 8.41531 17.9999 8.70142 18 8.99976V19.784C18 20.0824 17.8815 20.3685 17.6705 20.5795C17.4595 20.7905 17.1734 20.909 16.875 20.909H11.25V13.034H6.75V20.909H1.125C0.826631 20.909 0.540484 20.7905 0.329505 20.5795C0.118527 20.3685 0 20.0824 0 19.784V8.99976C6.37171e-05 8.70142 0.118632 8.41531 0.329625 8.20438Z" fill="url(#paint0_linear)"/>
<defs>
<linearGradient id="paint0_linear" x1="9" y1="0" x2="9" y2="20.909" gradientUnits="userSpaceOnUse">
<stop stop-color="#257AC9"/>
<stop offset="1" stop-color="#113E6A"/>
</linearGradient>
</defs>
</svg>
