<svg width="27" height="31" viewBox="0 0 27 31" fill="none" xmlns="http://www.w3.org/2000/svg">
<g filter="url(#filter0_d)">
<path fill-rule="evenodd" clip-rule="evenodd" d="M22.9667 22.0916C22.9334 22.7915 22.6716 23.45 22.2351 23.9317C21.7987 24.4135 21.2207 24.6819 20.6199 24.6818H6.26411C5.66333 24.6819 5.08535 24.4135 4.6489 23.9317C4.21244 23.45 3.95066 22.7915 3.91731 22.0916L3.00362 2.89463C2.98589 2.5223 3.03341 2.14965 3.1433 1.79948C3.25319 1.4493 3.42313 1.12896 3.64273 0.858027C3.86233 0.587094 4.12698 0.371266 4.4205 0.223737C4.71402 0.0762081 5.03024 7.78235e-05 5.34984 2.34058e-09H21.5342C21.8538 -1.5406e-05 22.1701 0.0760462 22.4637 0.223534C22.7573 0.371021 23.022 0.586835 23.2417 0.857778C23.4613 1.12872 23.6313 1.4491 23.7413 1.79932C23.8512 2.14954 23.8987 2.52224 23.881 2.89463L22.9667 22.0916ZM19.4612 8.07576C19.943 7.70553 20.0641 6.97125 19.6686 6.49338C18.9979 5.68575 18.2139 5.01752 17.3506 4.51746C16.1519 3.8237 14.8352 3.45192 13.4972 3.4294C12.1581 3.4035 10.8309 3.72723 9.61274 4.37691C8.73449 4.84515 7.9308 5.48408 7.23597 6.26645C6.82643 6.72992 6.92456 7.46763 7.39521 7.85568L9.92886 9.94404C10.3989 10.3321 11.0617 10.2066 11.5488 9.84463C11.6745 9.75161 11.8054 9.66869 11.9407 9.59644C12.3732 9.36561 12.8425 9.24345 13.318 9.23786L15.3117 6.56331C15.4139 6.42603 15.5587 6.34175 15.7142 6.32902C15.7912 6.32272 15.8685 6.33417 15.9417 6.36273C16.0149 6.39128 16.0825 6.43637 16.1408 6.49544C16.199 6.5545 16.2468 6.62637 16.2812 6.70695C16.3157 6.78754 16.3362 6.87525 16.3416 6.96508C16.347 7.05491 16.3372 7.1451 16.3127 7.2305C16.2882 7.31591 16.2496 7.39485 16.1989 7.46283L14.6524 9.53679C14.8619 9.63792 15.0619 9.76382 15.2494 9.9125C15.7254 10.2916 16.3834 10.4404 16.8653 10.0702L19.4606 8.07508L19.4612 8.07576Z" fill="url(#paint0_linear)"/>
</g>
<defs>
<filter id="filter0_d" x="0" y="0" width="26.8846" height="30.6818" filterUnits="userSpaceOnUse" color-interpolation-filters="sRGB">
<feFlood flood-opacity="0" result="BackgroundImageFix"/>
<feColorMatrix in="SourceAlpha" type="matrix" values="0 0 0 0 0 0 0 0 0 0 0 0 0 0 0 0 0 0 127 0" result="hardAlpha"/>
<feOffset dy="3"/>
<feGaussianBlur stdDeviation="1.5"/>
<feColorMatrix type="matrix" values="0 0 0 0 0 0 0 0 0 0 0 0 0 0 0 0 0 0 0.21 0"/>
<feBlend mode="normal" in2="BackgroundImageFix" result="effect1_dropShadow"/>
<feBlend mode="normal" in="SourceGraphic" in2="effect1_dropShadow" result="shape"/>
</filter>
<linearGradient id="paint0_linear" x1="13.4423" y1="0" x2="13.4423" y2="24.6818" gradientUnits="userSpaceOnUse">
<stop stop-color="#257AC9"/>
<stop offset="1" stop-color="#113E6A"/>
</linearGradient>
</defs>
</svg>
